# xmcd
#
# Track frame offsets:
# 150
# 14320
# 35197
# 62330
# 85912
# 103930
# 110707
# 133767
# 149882
# 155300
# 172325
# 186977
#
# Disc length: 2678 seconds
#
#
# Revision: 0
# Processed by: cddbd v1.5.1PL0 Copyright (c) Steve Scherf et al.
# Submitted via: FreeRIP 2.90 
#
DISCID=b60a740c
DTITLE=Heavy Blues - New Age
DYEAR=1992
DGENRE=blues
TTITLE0=Little Man
TTITLE1=Droga Do Wolnosci
TTITLE2=New Age
TTITLE3=Cisterns
TTITLE4=Superstitions
TTITLE5=Blue Bass Blues
TTITLE6=You Who Rule
TTITLE7=Naucz Sie
TTITLE8=Blue Harp Blues
TTITLE9=Sluchai Przyjacielu
TTITLE10=Say, What's The Matter
TTITLE11=Maly Czlowiek (Little Man)
EXTD=Miroslaw Kaluzny - guitars, vocals, harmonica\nRobert Szydlo - bass guitar\nMiroslaw "Klekot" Walczak - drums
EXTT0=
EXTT1=
EXTT2=
EXTT3=
EXTT4=
EXTT5=
EXTT6=
EXTT7=
EXTT8=
EXTT9=
EXTT10=
EXTT11=
PLAYORDER=
